<svg xmlns="http://www.w3.org/2000/svg" xmlns:xlink="http://www.w3.org/1999/xlink" width="500" zoomAndPan="magnify" viewBox="0 0 375 374.999991" height="500" preserveAspectRatio="xMidYMid meet" version="1.0"><defs><clipPath id="b13c1d63b4"><path d="M 179 164.039062 L 215.867188 164.039062 L 215.867188 203.789062 L 179 203.789062 Z M 179 164.039062 " clip-rule="nonzero"/></clipPath></defs><g clip-path="url(#b13c1d63b4)"><path fill="#7ed957" d="M 211.085938 173.609375 C 208.039062 170.296875 203.90625 168.257812 199.445312 167.863281 L 199.394531 168.4375 C 208.4375 169.238281 215.257812 176.699219 215.257812 185.792969 C 215.257812 195.3125 207.582031 203.074219 198.09375 203.210938 L 198.09375 191.902344 L 197.519531 191.902344 L 197.519531 203.210938 C 188.0625 203.035156 180.425781 195.289062 180.425781 185.792969 C 180.425781 185.585938 180.429688 185.382812 180.4375 185.179688 C 180.527344 185.183594 180.632812 185.1875 180.753906 185.1875 C 181.414062 185.1875 182.511719 185.078125 183.890625 184.53125 C 185.9375 183.71875 189.03125 181.738281 192.160156 176.914062 C 198.136719 167.683594 197.207031 164.382812 197.164062 164.25 L 197.101562 164.039062 L 196.878906 164.046875 C 196.777344 164.050781 194.273438 164.144531 191.136719 165.039062 C 188.230469 165.867188 184.226562 167.574219 181.671875 170.984375 C 179.003906 174.542969 178.390625 179.234375 179.847656 184.929688 L 179.867188 185 C 179.855469 185.261719 179.847656 185.527344 179.847656 185.792969 C 179.847656 195.714844 187.921875 203.789062 197.84375 203.789062 C 207.765625 203.789062 215.835938 195.714844 215.835938 185.792969 C 215.835938 181.265625 214.148438 176.9375 211.085938 173.609375 Z M 182.128906 171.332031 C 186.421875 165.601562 195.0625 164.746094 196.648438 164.636719 C 196.726562 165.496094 196.625 168.960938 191.675781 176.597656 C 188.648438 181.269531 185.679688 183.191406 183.722656 183.976562 C 182.164062 184.605469 180.980469 184.628906 180.464844 184.601562 C 180.753906 180.25 182.628906 176.230469 185.820312 173.1875 L 185.421875 172.769531 C 182.476562 175.582031 180.617188 179.195312 180.042969 183.144531 C 179.132812 178.367188 179.832031 174.398438 182.128906 171.332031 Z M 182.128906 171.332031 " fill-opacity="1" fill-rule="nonzero"/></g><path fill="#7ed957" d="M 199.460938 187.367188 C 198.273438 188.414062 198.34375 190.023438 198.347656 190.089844 L 198.355469 190.292969 L 198.554688 190.351562 C 199 190.480469 199.429688 190.546875 199.835938 190.546875 C 200.46875 190.546875 201.050781 190.390625 201.574219 190.078125 C 203.183594 189.128906 203.660156 187.070312 203.679688 186.984375 L 203.746094 186.6875 L 203.449219 186.636719 C 201.695312 186.328125 200.355469 186.574219 199.460938 187.367188 Z M 201.277344 189.585938 C 200.609375 189.980469 199.820312 190.070312 198.925781 189.855469 C 198.949219 189.433594 199.09375 188.457031 199.84375 187.792969 C 200.550781 187.171875 201.621094 186.957031 203.03125 187.152344 C 202.847656 187.722656 202.335938 188.960938 201.277344 189.585938 Z M 201.277344 189.585938 " fill-opacity="1" fill-rule="nonzero"/><path fill="#7ed957" d="M 196.007812 184.308594 C 196.246094 185.875 197.632812 186.6875 197.691406 186.71875 L 197.871094 186.820312 L 198.023438 186.6875 C 198.921875 185.90625 199.394531 185.003906 199.433594 184.003906 C 199.507812 182.132812 198.039062 180.617188 197.976562 180.550781 L 197.765625 180.335938 L 197.558594 180.558594 C 196.347656 181.863281 195.828125 183.125 196.007812 184.308594 Z M 197.765625 181.191406 C 198.144531 181.65625 198.90625 182.753906 198.859375 183.984375 C 198.828125 184.757812 198.472656 185.472656 197.808594 186.105469 C 197.46875 185.859375 196.726562 185.214844 196.578125 184.222656 C 196.433594 183.289062 196.835938 182.269531 197.765625 181.191406 Z M 197.765625 181.191406 " fill-opacity="1" fill-rule="nonzero"/><path fill="#7ed957" d="M 197.257812 190.292969 L 197.269531 190.089844 C 197.269531 190.023438 197.339844 188.414062 196.152344 187.367188 C 195.261719 186.574219 193.917969 186.328125 192.164062 186.636719 L 191.867188 186.6875 L 191.933594 186.984375 C 191.953125 187.070312 192.429688 189.128906 194.039062 190.078125 C 194.5625 190.390625 195.144531 190.546875 195.777344 190.546875 C 196.183594 190.546875 196.613281 190.480469 197.058594 190.351562 Z M 194.335938 189.585938 C 193.277344 188.960938 192.769531 187.722656 192.582031 187.152344 C 193.992188 186.957031 195.066406 187.171875 195.769531 187.792969 C 196.523438 188.457031 196.664062 189.433594 196.6875 189.855469 C 195.796875 190.070312 195.003906 189.980469 194.335938 189.585938 Z M 194.335938 189.585938 " fill-opacity="1" fill-rule="nonzero"/><path fill="#7ed957" d="M 191.714844 191.625 L 193.625 194.035156 C 194.425781 195.046875 194.914062 196.382812 195.386719 197.675781 C 195.5625 198.148438 195.738281 198.636719 195.929688 199.09375 L 196.460938 198.871094 C 196.277344 198.429688 196.105469 197.96875 195.929688 197.480469 C 195.441406 196.144531 194.933594 194.761719 194.074219 193.679688 L 192.167969 191.269531 C 191.539062 190.472656 190.398438 190.316406 189.582031 190.898438 L 187.726562 185.578125 C 187.515625 184.96875 186.882812 184.625 186.257812 184.773438 C 185.609375 184.925781 185.199219 185.5625 185.320312 186.21875 C 185.320312 186.21875 186.050781 190.015625 186.058594 190.042969 C 186.4375 192.023438 187.132812 193.824219 188.121094 195.394531 C 188.636719 196.214844 189.242188 196.992188 189.925781 197.703125 C 190.234375 198.027344 190.777344 198.882812 191.152344 199.542969 L 191.652344 199.257812 C 191.246094 198.546875 190.683594 197.667969 190.339844 197.304688 C 189.6875 196.621094 189.101562 195.875 188.609375 195.089844 C 187.660156 193.578125 186.992188 191.84375 186.625 189.941406 C 186.621094 189.9375 186.621094 189.9375 185.882812 186.113281 C 185.820312 185.757812 186.042969 185.417969 186.390625 185.335938 C 186.730469 185.253906 187.070312 185.441406 187.183594 185.769531 L 189.347656 191.816406 L 192.15625 195.367188 L 192.609375 195.007812 L 189.796875 191.457031 L 189.859375 191.410156 C 190.429688 190.957031 191.261719 191.054688 191.714844 191.625 Z M 191.714844 191.625 " fill-opacity="1" fill-rule="nonzero"/><path fill="#7ed957" d="M 209.429688 184.773438 C 208.800781 184.625 208.167969 184.96875 207.957031 185.578125 L 206.105469 190.898438 C 205.722656 190.625 205.257812 190.507812 204.785156 190.5625 C 204.28125 190.621094 203.832031 190.871094 203.519531 191.269531 L 201.609375 193.679688 C 200.75 194.761719 200.246094 196.144531 199.757812 197.480469 C 199.578125 197.96875 199.410156 198.429688 199.226562 198.875 L 199.757812 199.09375 C 199.945312 198.640625 200.125 198.148438 200.296875 197.675781 C 200.769531 196.386719 201.261719 195.046875 202.0625 194.035156 L 203.96875 191.625 C 204.191406 191.347656 204.503906 191.175781 204.855469 191.132812 C 205.207031 191.09375 205.550781 191.191406 205.828125 191.410156 L 205.886719 191.457031 L 203.078125 195.007812 L 203.53125 195.367188 L 206.339844 191.816406 L 208.5 185.769531 C 208.617188 185.441406 208.957031 185.253906 209.296875 185.332031 C 209.644531 185.417969 209.867188 185.757812 209.800781 186.109375 C 209.800781 186.109375 209.101562 189.742188 209.066406 189.925781 L 209.0625 189.933594 C 208.695312 191.84375 208.027344 193.578125 207.078125 195.089844 C 206.582031 195.875 206 196.621094 205.34375 197.304688 C 205 197.664062 204.4375 198.546875 204.03125 199.257812 L 204.53125 199.542969 C 204.90625 198.882812 205.453125 198.027344 205.761719 197.703125 C 206.441406 196.992188 207.050781 196.214844 207.566406 195.394531 C 208.550781 193.824219 209.246094 192.023438 209.628906 190.042969 C 209.644531 189.96875 209.738281 189.488281 210.367188 186.214844 C 210.488281 185.5625 210.074219 184.929688 209.429688 184.773438 Z M 209.429688 184.773438 " fill-opacity="1" fill-rule="nonzero"/></svg>